PathFileType	4	(X/Y/Z)	motion.trc
DataRate	CameraRate	NumFrames	NumMarkers	Units	OrigDataRate	OrigDataStartFrame	OrigNumFrames
25	25	27	9	mm	25	208	249
Frame#	Time	mPelvis	mHipR	mHipL	mKneeR	mKneeL	mAnkleR	mAnkleL	mToesR	mToesL
X1 Y1 Z1 X2 Y2 Z2 X3 Y3 Z3 X4 Y4 Z4 X5 Y5 Z5 X6 Y6 Z6 X7 Y7 Z7 X8 Y8 Z8 X9 Y9 Z9
208	7.566000	-342.560619	-13.613283	2806.001663	-243.583113	-91.718331	2809.411049	-420.010656	-110.838577	2794.821739	-85.544653	-505.537271	2743.079185	-434.263796	-522.767901	2899.341345	74.287482	-827.350914	2684.014320	-409.617335	-903.259039	2964.101791	144.383967	-888.231218	2625.652552	-414.650857	-951.484919	2908.936024	
209	7.597000	-316.167623	-14.432603	2789.378881	-217.536300	-94.738528	2792.688608	-396.294326	-112.099789	2778.388739	-73.498823	-513.601422	2736.055613	-422.420382	-524.287283	2887.031555	77.193014	-836.530864	2681.637526	-408.668101	-902.511299	2962.345600	147.126958	-898.525655	2624.339819	-413.100004	-950.527549	2905.845642	
210	7.612000	-286.977172	-15.377005	2770.952225	-189.305767	-97.699456	2774.489641	-369.591564	-113.319501	2760.093689	-58.881968	-521.154583	2726.899624	-406.480581	-525.689602	2870.010853	80.375776	-845.773757	2679.526567	-407.683432	-901.780069	2960.106373	150.127277	-908.830047	2623.174191	-411.369830	-949.555516	2901.941776	
211	7.675000	-255.827576	-16.447168	2751.347542	-159.790546	-100.478537	2755.714178	-340.183377	-114.383884	2740.360975	-43.506324	-528.180599	2717.097044	-389.186203	-526.798546	2850.601673	83.645977	-854.590297	2677.443504	-405.897528	-900.679469	2956.162930	153.171420	-918.785751	2622.182608	-408.469349	-948.097467	2895.723581	
212	7.690000	-224.746227	-17.167596	2731.758356	-130.126357	-102.772102	2736.813545	-311.038226	-114.935152	2720.895767	-27.288141	-534.589112	2706.558704	-369.558990	-527.249694	2827.282429	86.909391	-862.995267	2675.485134	-402.715266	-899.098337	2949.224234	156.125829	-928.192794	2621.340513	-404.148072	-946.077287	2885.907173	
213	7.737000	-194.420666	-17.594811	2712.387323	-101.715885	-104.672335	2718.459845	-282.174289	-114.876486	2701.465130	-11.302952	-540.403843	2696.066856	-347.303659	-527.185202	2799.808502	90.284199	-870.925784	2673.555613	-399.069428	-898.417354	2940.950394	158.973679	-937.041521	2620.623589	-399.305463	-945.123553	2874.652386	
214	7.753000	-165.159330	-17.760513	2693.291426	-74.570648	-106.025353	2700.448036	-254.058003	-114.215903	2682.323456	4.084414	-545.700610	2685.818911	-324.746579	-528.805912	2771.440744	93.918443	-878.529191	2671.746254	-394.438654	-898.995161	2928.943157	161.713257	-945.289195	2619.936943	-396.878242	-946.195483	2866.971016	
215	7.815000	-137.438118	-17.793195	2674.734592	-48.687030	-107.103348	2682.672739	-227.514565	-113.296375	2664.002895	18.556071	-550.473273	2676.065922	-300.059080	-530.381024	2738.884926	97.551972	-885.781229	2670.119762	-384.414285	-898.841560	2906.884193	164.383128	-952.964365	2619.216442	-385.677040	-945.782602	2841.180801	
216	7.846000	-108.976707	-17.911350	2654.668808	-22.502275	-108.080097	2663.726091	-199.922174	-111.893989	2644.382715	32.352623	-555.039108	2666.679382	-269.511342	-533.212781	2695.690632	101.107642	-892.446339	2668.552399	-358.105958	-901.983559	2857.582808	167.016104	-960.109353	2618.531227	-365.775913	-951.082647	2801.814556	
217	7.909000	-82.176104	-18.000491	2635.125637	2.483103	-108.975880	2644.921064	-173.990652	-110.447802	2625.587225	45.118440	-559.276700	2657.920361	-239.300162	-537.112236	2652.721167	104.491428	-898.674071	2667.263985	-324.270993	-906.982362	2796.205759	169.522762	-966.710925	2617.914677	-335.932642	-957.399845	2743.042707	
218	7.924000	-57.119086	-17.962784	2615.777969	25.823347	-109.717987	2626.388550	-149.748862	-108.856864	2607.177496	56.937054	-563.089073	2649.742842	-209.292039	-541.499019	2608.843565	107.665479	-904.354811	2666.096210	-285.862356	-910.795748	2723.065138	171.949774	-972.795427	2617.284536	-297.645867	-963.312507	2671.671391	
219	7.956000	-34.118526	-18.159209	2596.953154	47.418632	-110.634163	2608.046532	-127.461195	-107.446484	2589.485645	67.869447	-566.534400	2642.033100	-180.922687	-545.608103	2565.996408	110.631369	-909.539521	2665.022135	-242.996871	-910.037935	2640.434027	174.214229	-978.356659	2616.681337	-256.032884	-965.597689	2593.354464	
220	7.987000	-12.632569	-18.397342	2577.699184	67.690536	-111.549377	2589.192629	-106.540211	-106.068321	2571.431160	78.122407	-569.681585	2634.593010	-154.233843	-548.001111	2523.833990	113.351181	-914.245486	2664.027214	-201.338917	-906.031907	2554.688692	176.315784	-983.426452	2616.134405	-212.199911	-960.778058	2499.513865	
221	8.034000	7.244760	-18.724332	2558.225632	86.620674	-112.440869	2569.870710	-87.117583	-104.844891	2553.259134	87.835602	-572.614610	2627.095938	-130.041420	-549.201012	2486.675739	115.858205	-918.543577	2663.125038	-162.243202	-899.260700	2470.857859	178.268105	-988.046408	2615.639925	-165.621802	-955.669641	2423.033953	
222	8.065000	25.628395	-19.496817	2538.066864	104.330227	-113.645963	2549.344778	-69.097519	-104.094513	2534.728765	97.088620	-575.593293	2619.147539	-108.270556	-548.781931	2448.363304	118.154474	-922.542989	2662.271738	-134.224057	-899.984062	2410.108089	180.103853	-992.278457	2615.187645	-136.411548	-956.505537	2359.371901	
223	8.112000	42.377859	-20.631392	2517.175674	120.503366	-115.044653	2528.039455	-52.535333	-103.704318	2515.494823	106.000558	-578.483462	2610.783100	-89.220718	-547.921360	2413.578510	120.294154	-926.259041	2661.450624	-108.208425	-900.959432	2353.720665	181.826890	-996.158719	2614.767075	-109.310403	-957.500517	2300.041676	
224	8.158000	58.594976	-23.518441	2488.371134	136.507019	-117.833637	2498.203754	-35.938881	-105.119564	2488.514185	116.055742	-581.864953	2596.885920	-67.758918	-547.002971	2374.463797	122.610062	-930.131674	2660.130978	-83.710998	-903.725624	2296.877861	183.488116	-999.742866	2614.340782	-84.107205	-960.191131	2239.969969	
225	8.205000	72.756127	-26.856255	2458.415508	150.687486	-121.052906	2467.005730	-21.242118	-107.101478	2460.283995	125.934258	-585.593104	2581.840277	-48.430353	-546.342254	2338.175297	124.881767	-933.870077	2658.430576	-62.076345	-906.770289	2246.108294	185.123906	-1003.082037	2613.917112	-61.988324	-963.136971	2186.310053	
226	8.221000	85.020237	-30.514635	2425.290346	163.237482	-124.586686	2432.323456	-8.309698	-109.514646	2428.560495	136.407793	-589.203894	2561.184406	-30.721456	-543.786466	2298.624039	127.231538	-936.556458	2654.618502	-42.897984	-909.434259	2201.984644	186.580956	-1005.966067	2613.446951	-42.403523	-966.136694	2139.591932	
227	8.268000	94.838463	-34.173086	2390.480757	173.424840	-128.111616	2395.241499	2.375118	-112.127520	2395.599365	147.459999	-592.523098	2534.471989	-15.572030	-540.988982	2259.546995	129.492909	-938.918531	2650.439262	-25.408078	-911.995828	2161.903620	188.007072	-1008.582234	2612.922907	-24.731049	-968.949556	2097.228765	
228	8.299000	102.456704	-37.894383	2353.568316	181.616232	-131.414250	2356.514454	10.927935	-115.298882	2359.689713	158.613518	-594.673336	2497.226954	-3.512124	-538.413703	2220.551729	132.081226	-940.653920	2644.951105	-9.673750	-914.474130	2126.166582	189.543113	-1010.866642	2612.149477	-8.732669	-971.601427	2059.495449	
229	8.346000	108.129509	-41.295663	2315.802097	187.915310	-134.144932	2317.225695	17.588114	-118.454523	2322.757006	170.966864	-592.818916	2446.492195	6.438560	-536.274254	2185.601473	136.978924	-939.252317	2631.258011	4.311956	-916.737556	2094.537258	192.370340	-1011.569858	2607.695341	5.458921	-974.021256	2026.222229	
230	8.377000	111.931801	-44.654198	2277.321577	192.386255	-136.613965	2277.069092	22.549944	-121.905282	2284.909010	183.382645	-588.060319	2384.526491	14.693308	-534.648776	2153.664351	143.332317	-934.238195	2607.517958	16.675625	-918.719053	2066.719770	196.357027	-1009.776235	2595.848799	18.001620	-976.119995	1997.085810	
231	8.424000	113.641985	-47.105696	2231.753111	194.987297	-137.632236	2230.322361	25.628835	-125.012606	2239.288807	197.128579	-577.678025	2295.946360	21.250015	-532.828331	2121.011734	153.720334	-921.653569	2550.669193	27.715605	-920.232892	2041.948795	202.120036	-998.615086	2551.476479	29.218871	-977.735281	1971.176147	
232	8.455000	114.453189	-49.318634	2189.529419	196.585774	-138.440624	2187.250137	27.715929	-127.934158	2196.852207	210.005179	-568.217039	2207.879066	26.493302	-531.343341	2091.695786	169.520095	-904.306769	2469.284058	37.676290	-921.701252	2019.484043	212.996483	-981.955826	2478.205442	39.315529	-979.266286	1947.672844	
233	8.502000	114.505760	-51.285252	2147.295952	197.396457	-138.921142	2144.374371	29.140195	-130.855322	2153.848410	221.492752	-557.949066	2121.584892	30.364584	-530.065417	2063.798189	180.904597	-897.844851	2414.369345	46.554454	-923.104227	1999.417543	218.597576	-972.507536	2413.646936	48.316561	-980.664015	1926.613331	
234	8.533000	114.025809	-53.156964	2107.229233	197.595417	-139.387012	2103.916407	29.842552	-133.700967	2113.255262	232.240438	-548.592865	2040.369272	33.252820	-529.245734	2037.456989	193.734139	-894.085288	2347.761869	54.306589	-924.598992	1981.444478	225.021675	-965.677977	2334.800482	56.101408	-982.070148	1907.695889	
